<svg width="480" height="341" viewBox="0 0 480 341" fill="none" xmlns="http://www.w3.org/2000/svg">
<path d="M395.8 268.01L318.54 179.71V340.16H458.93L395.8 268.01Z" fill="black"/>
<path d="M166.56 180.93V292.48L270.67 203.25L305.14 173.7H170.18H166.56V180.93Z" fill="black"/>
<path d="M395.83 95.96L457.12 43.42H325.78L395.83 95.96Z" fill="black"/>
<path d="M479.88 173.7H322.9L396.15 257.42L479.88 173.7Z" fill="black"/>
<path d="M396.13 105.24L318.54 47.04V162.21V166.46H324.7H477.76L396.13 105.24Z" fill="black"/>
<path d="M244.66 95.27L166.56 6.01001V162.21L240.38 98.94L244.66 95.27Z" fill="black"/>
<path d="M311.3 160.45V47.67L207.2 136.91L172.73 166.46H306.95H311.3V160.45Z" fill="black"/>
<path d="M88.84 249.3L41.41 296.73H152.09L88.84 249.3Z" fill="black"/>
<path d="M311.3 177.95L237.49 241.22L233.21 244.89L311.3 334.15V177.95Z" fill="black"/>
<path d="M159.32 159.22V0H39.91L159.32 159.22Z" fill="black"/>
<path d="M88.11 76.33L-2.01001 166.46H155.71L88.11 76.33Z" fill="black"/>
<path d="M159.32 293.11V177.95V173.7H153.16H0.109985L159.32 293.11Z" fill="black"/>
</svg>
