<svg viewBox="0 0 589 108" fill="none" xmlns="http://www.w3.org/2000/svg">
  <path
    d="M588.24 107.59H577.16L557.4 65.66L556.19 63.5L533.63 16.05L509.86 65.68L494.77 97.71H533.59V107.59H478.94L530.18 0.390015H537L588.24 107.59Z"
    fill="black" />
  <path
    d="M462.6 1.16998L421.64 76.72L380.68 1.16998H371.91V107.76H382.39V26.29L419.16 93.05H423.6L460.71 25.98V107.59H471.2V1.16998H462.6Z"
    fill="black" />
  <path
    d="M347.86 71.51L347.95 97.54H332.98C306.68 97.54 286.85 79 286.85 54.42V54.08C286.85 29.29 306.07 11.3 332.55 11.3H351.13V1.16H332.55C299.9 1.16 276.2 23.48 276.2 54.24V54.6C276.38 85.45 300.15 107.84 332.73 107.84H358.36V71.5H347.86V71.51Z"
    fill="black" />
  <path
    d="M229.31 0.559998H222.49L171.25 107.76H225.9V97.89H187.08L202.17 65.93L225.94 16.31L248.48 63.64L249.71 65.92L269.47 107.76H280.55L229.31 0.559998Z"
    fill="black" />
  <path
    d="M172.9 43.51C172.99 32.37 168.79 21.99 161.08 14.28C152.02 5.22 138.86 0.220001 124.03 0.220001H93.06V107.59H103.2V9.92H124.03C146.21 9.92 162.93 24.43 162.93 43.66C162.93 61.24 149.26 74.72 129.53 76.78L113.02 60.27V74.32L146.38 107.68H160.43L137.77 85.02C158.99 80.15 172.89 64.01 172.9 43.51Z"
    fill="black" />
  <path
    d="M68.51 14.73C59.56 5.6 46.43 0.570007 31.53 0.570007H0.559998V107.94H10.7V10.36H31.53C53.71 10.36 70.43 24.79 70.43 44.1C70.43 63.45 54.14 77.5 31.7 77.5H20.62V87.03H31.53C59.8 87.03 80.31 68.98 80.31 43.95C80.4 32.8 76.2 22.42 68.51 14.73Z"
    fill="black" />
</svg>